<svg width="94" height="18" viewBox="0 0 94 18" fill="none" xmlns="http://www.w3.org/2000/svg">
<g clip-path="url(#clip0_74_78443)">
<path d="M18.0281 17.2466C17.2609 17.2466 16.5896 17.0753 16.0142 16.7329C15.4388 16.3767 14.9935 15.904 14.6784 15.3149L14.6168 17H12.6851V2.40958H14.7606V7.6087C15.0346 7.12921 15.4525 6.71136 16.0142 6.35516C16.5896 5.99896 17.2609 5.82086 18.0281 5.82086C18.9597 5.82086 19.768 6.05376 20.4529 6.51956C21.1379 6.97166 21.6654 7.62925 22.0353 8.49235C22.4052 9.34174 22.5901 10.3555 22.5901 11.5337C22.5901 12.7119 22.4052 13.7326 22.0353 14.5957C21.6654 15.4451 21.1379 16.1027 20.4529 16.5685C19.768 17.0205 18.9597 17.2466 18.0281 17.2466ZM17.6787 15.3355C18.5418 15.3355 19.2131 14.9998 19.6926 14.3285C20.1721 13.6435 20.4118 12.7119 20.4118 11.5337C20.4118 10.3418 20.1721 9.41024 19.6926 8.73895C19.2131 8.06765 18.5555 7.732 17.7198 7.732C17.1033 7.732 16.5759 7.8827 16.1375 8.1841C15.6991 8.4855 15.3566 8.91705 15.11 9.47874C14.8771 10.0404 14.7606 10.7254 14.7606 11.5337C14.7606 12.3146 14.8771 12.9928 15.11 13.5682C15.3566 14.1299 15.6922 14.5683 16.1169 14.8834C16.5553 15.1848 17.0759 15.3355 17.6787 15.3355ZM27.2058 17V6.06746H28.8498L29.0348 8.86225L28.8498 8.8417C28.9868 7.8964 29.2814 7.1977 29.7335 6.74561C30.1856 6.29351 30.8089 6.06746 31.6035 6.06746H33.9256V7.87585H31.6857C31.1651 7.87585 30.7267 7.9786 30.3705 8.1841C30.0143 8.3759 29.7403 8.67045 29.5485 9.06774C29.3704 9.45134 29.2814 9.93084 29.2814 10.5062V17H27.2058ZM24.4316 17V15.2533H32.6927V17H24.4316ZM24.4316 7.8142V6.06746H28.3772V7.8142H24.4316ZM40.5758 17.2466C39.562 17.2466 38.6715 17.0137 37.9043 16.5479C37.1508 16.0821 36.5617 15.4177 36.137 14.5546C35.726 13.6915 35.5205 12.6845 35.5205 11.5337C35.5205 10.3692 35.726 9.36229 36.137 8.5129C36.5617 7.6498 37.1508 6.98536 37.9043 6.51956C38.6715 6.05376 39.562 5.82086 40.5758 5.82086C41.5896 5.82086 42.4732 6.05376 43.2267 6.51956C43.9939 6.98536 44.583 7.6498 44.994 8.5129C45.4187 9.36229 45.631 10.3692 45.631 11.5337C45.631 12.6845 45.4187 13.6915 44.994 14.5546C44.583 15.4177 43.9939 16.0821 43.2267 16.5479C42.4732 17.0137 41.5896 17.2466 40.5758 17.2466ZM40.5758 15.3355C41.4937 15.3355 42.1992 14.9998 42.6924 14.3285C43.1993 13.6572 43.4528 12.7256 43.4528 11.5337C43.4528 10.3418 43.1993 9.41024 42.6924 8.73895C42.1992 8.06765 41.4937 7.732 40.5758 7.732C39.6579 7.732 38.9455 8.06765 38.4386 8.73895C37.9454 9.41024 37.6988 10.3418 37.6988 11.5337C37.6988 12.7256 37.9454 13.6572 38.4386 14.3285C38.9455 14.9998 39.6579 15.3355 40.5758 15.3355ZM53.1443 17.2466C52.3771 17.2466 51.7058 17.0753 51.1304 16.7329C50.555 16.3767 50.1097 15.904 49.7946 15.3149L49.733 17H47.8013V2.40958H49.8768V7.6087C50.1508 7.12921 50.5687 6.71136 51.1304 6.35516C51.7058 5.99896 52.3771 5.82086 53.1443 5.82086C54.0759 5.82086 54.8842 6.05376 55.5692 6.51956C56.2542 6.97166 56.7816 7.62925 57.1515 8.49235C57.5214 9.34174 57.7064 10.3555 57.7064 11.5337C57.7064 12.7119 57.5214 13.7326 57.1515 14.5957C56.7816 15.4451 56.2542 16.1027 55.5692 16.5685C54.8842 17.0205 54.0759 17.2466 53.1443 17.2466ZM52.7949 15.3355C53.658 15.3355 54.3293 14.9998 54.8088 14.3285C55.2883 13.6435 55.5281 12.7119 55.5281 11.5337C55.5281 10.3418 55.2883 9.41024 54.8088 8.73895C54.3293 8.06765 53.6717 7.732 52.836 7.732C52.2195 7.732 51.6921 7.8827 51.2537 8.1841C50.8153 8.4855 50.4728 8.91705 50.2262 9.47874C49.9933 10.0404 49.8768 10.7254 49.8768 11.5337C49.8768 12.3146 49.9933 12.9928 50.2262 13.5682C50.4728 14.1299 50.8084 14.5683 51.2331 14.8834C51.6715 15.1848 52.1921 15.3355 52.7949 15.3355ZM64.1304 17.2466C63.1029 17.2466 62.2056 17.0137 61.4384 16.5479C60.6849 16.0821 60.0958 15.4177 59.6711 14.5546C59.2601 13.6915 59.0546 12.6845 59.0546 11.5337C59.0546 10.3829 59.2601 9.38284 59.6711 8.53345C60.0958 7.68405 60.6781 7.01961 61.4179 6.54011C62.1714 6.06061 63.055 5.82086 64.0688 5.82086C65.0415 5.82086 65.8977 6.05376 66.6375 6.51956C67.3773 6.97166 67.9527 7.62925 68.3637 8.49235C68.7884 9.34174 69.0008 10.3692 69.0008 11.5748V12.1502H61.2329C61.3014 13.1914 61.5891 13.986 62.096 14.534C62.6166 15.0683 63.3016 15.3355 64.151 15.3355C64.7949 15.3355 65.3292 15.1848 65.7539 14.8834C66.1786 14.5683 66.4731 14.1641 66.6375 13.6709L68.8158 13.8148C68.5007 14.856 67.9322 15.6917 67.1102 16.3219C66.3019 16.9384 65.3086 17.2466 64.1304 17.2466ZM61.2329 10.4857H66.7608C66.6786 9.55409 66.3909 8.86225 65.8977 8.41015C65.4182 7.95805 64.8086 7.732 64.0688 7.732C63.3016 7.732 62.6714 7.9649 62.1782 8.4307C61.685 8.8965 61.3699 9.58149 61.2329 10.4857ZM74.0275 17V6.06746H75.6715L75.8564 8.86225L75.6715 8.8417C75.8084 7.8964 76.103 7.1977 76.5551 6.74561C77.0072 6.29351 77.6305 6.06746 78.4251 6.06746H80.7473V7.87585H78.5073C77.9867 7.87585 77.5483 7.9786 77.1921 8.1841C76.8359 8.3759 76.5619 8.67045 76.3701 9.06774C76.192 9.45134 76.103 9.93084 76.103 10.5062V17H74.0275ZM71.2532 17V15.2533H79.5143V17H71.2532ZM71.2532 7.8142V6.06746H75.1988V7.8142H71.2532Z" fill="black"/>
</g>
<defs>
<clipPath id="clip0_74_78443">
<rect width="94" height="18" fill="white"/>
</clipPath>
</defs>
</svg>
